<svg width="320" height="120" viewBox="0 0 320 120" fill="none" xmlns="http://www.w3.org/2000/svg" role="img" aria-label="WILDS HUB">
  <defs>
    <linearGradient id="gold" x1="0" y1="0" x2="0" y2="1">
      <stop offset="0" stop-color="#f5ead0"></stop>
      <stop offset="0.5" stop-color="#e3c074"></stop>
      <stop offset="1" stop-color="#b07d2e"></stop>
    </linearGradient>
  </defs>
  
  <g transform="translate(54,60)">
    
    <path d="M0,-44 L38,-22 L38,22 L0,44 L-38,22 L-38,-22 Z" fill="#120d06" stroke="url(#gold)" stroke-width="3"></path>
    <path d="M0,-34 L29,-17 L29,17 L0,34 L-29,17 L-29,-17 Z" fill="none" stroke="#8a6a2e" stroke-width="1.2"></path>
    
    <path d="M-20,-16 L-6,-16 L-2,8 L-12,2 Z" fill="url(#gold)"></path>
    <path d="M20,-16 L6,-16 L2,8 L12,2 Z" fill="url(#gold)"></path>
    
    <path d="M0,-4 L11,12 L0,28 L-11,12 Z" fill="#f59e0b" stroke="#120d06" stroke-width="1.5"></path>
    <path d="M0,-4 L0,28 M-11,12 L11,12" stroke="#7a4d08" stroke-width="0.8"></path>
  </g>
  
  <text x="108" y="56" font-family="Cinzel, Georgia, serif" font-size="36" font-weight="700" letter-spacing="3" fill="url(#gold)">WILDS</text>
  <text x="108" y="93" font-family="Cinzel, Georgia, serif" font-size="20" font-weight="600" letter-spacing="12" fill="#9a8052">HUB</text>
  <line x1="200" y1="84" x2="312" y2="84" stroke="#3a2f1a" stroke-width="1"></line>
  <text x="200" y="98" font-family="&#39;JetBrains Mono&#39;, monospace" font-size="8" letter-spacing="2" fill="#6b5a36">FIELD GUIDE · SET BUILDER</text>
</svg>